<svg width="164" height="89" viewBox="0 0 164 89" fill="none" xmlns="http://www.w3.org/2000/svg">
<path d="M11.1523 13.3017L24.6588 1.39581H27.9916L15.8226 12.0958L29.8772 34H24.2641L12.3144 15.2312L11.1523 16.2617V34H6.35047V1.39581H11.1523V13.3017ZM43.9538 1.39581C45.8102 1.39581 47.4108 1.56391 48.7557 1.90011C50.1151 2.22169 51.2625 2.65291 52.1981 3.19375C53.1482 3.7346 53.9083 4.35584 54.4784 5.05748C55.0631 5.75911 55.5089 6.48268 55.8159 7.22817C56.1375 7.97366 56.3494 8.71915 56.4517 9.46463C56.5687 10.1955 56.6271 10.8752 56.6271 11.5038C56.6271 12.3077 56.4956 13.2067 56.2325 14.2007C55.984 15.1947 55.5235 16.1594 54.8511 17.0949C54.1933 18.0305 53.2871 18.8783 52.1323 19.6384C50.9775 20.3839 49.5085 20.9174 47.7251 21.239L57.1534 34H51.2772L42.0682 21.5679H38.5161V34H33.7143V1.39581H43.9538ZM38.5161 3.54457V19.3972H41.2569C42.821 19.3972 44.2316 19.2583 45.4887 18.9806C46.7604 18.6882 47.8421 18.2278 48.7337 17.5992C49.64 16.9561 50.3343 16.1302 50.8167 15.1216C51.2991 14.0984 51.5403 12.8632 51.5403 11.4161C51.5403 9.77891 51.2479 8.44872 50.6632 7.4255C50.0785 6.38766 49.3038 5.58371 48.3391 5.01363C47.3889 4.44355 46.2999 4.05618 45.0721 3.85154C43.8442 3.64689 42.5871 3.54457 41.3008 3.54457H38.5161ZM67.8314 34H63.0077V1.39581H67.8314V34ZM82.7193 0.716099C83.684 0.716099 84.5245 0.759951 85.2408 0.847656C85.9716 0.935361 86.6514 1.05961 87.2799 1.2204C87.9231 1.36657 88.5589 1.54198 89.1875 1.74663C89.816 1.95127 90.5177 2.17784 91.2924 2.42634L91.2047 4.72859C90.6492 4.53856 90.0865 4.35584 89.5164 4.18043C88.9463 4.00502 88.347 3.85154 87.7184 3.71998C87.1045 3.58843 86.4467 3.4861 85.7451 3.41302C85.0434 3.32531 84.2906 3.28146 83.4867 3.28146C83.1212 3.28146 82.6973 3.33993 82.215 3.45687C81.7326 3.57381 81.2721 3.77114 80.8336 4.04887C80.3951 4.32661 80.0223 4.69204 79.7154 5.14518C79.4084 5.59832 79.2549 6.16109 79.2549 6.8335C79.2549 7.46205 79.5034 8.20023 80.0004 9.04804C80.4974 9.88123 81.3306 10.9264 82.5 12.1835L86.359 16.3494C87.2068 17.2265 88.0181 18.0962 88.7928 18.9587C89.5821 19.8065 90.2692 20.647 90.8539 21.4802C91.4386 22.2987 91.9063 23.1173 92.2571 23.9359C92.608 24.7399 92.7834 25.5365 92.7834 26.3258C92.7834 27.8607 92.4983 29.1689 91.9282 30.2506C91.3728 31.3177 90.6419 32.1874 89.7356 32.8598C88.844 33.5176 87.8281 34 86.6879 34.307C85.5477 34.6139 84.4076 34.7674 83.2674 34.7674C82.2734 34.7674 81.3452 34.7089 80.4828 34.592C79.6204 34.4897 78.7945 34.3289 78.0051 34.1096C77.2304 33.905 76.4849 33.6492 75.7687 33.3422C75.0524 33.0206 74.3435 32.6552 73.6418 32.2459L73.9269 29.8779C74.497 30.141 75.0817 30.4114 75.681 30.6892C76.2803 30.9523 76.8869 31.1935 77.5008 31.4127C78.1294 31.6174 78.7652 31.7855 79.4084 31.917C80.0516 32.0486 80.6947 32.1144 81.3379 32.1144C83.4867 32.1144 85.1092 31.6758 86.2055 30.7988C87.3018 29.9071 87.85 28.6208 87.85 26.9398C87.85 26.4282 87.733 25.9092 87.4992 25.383C87.2799 24.8568 86.9729 24.3159 86.5783 23.7605C86.1836 23.1904 85.7158 22.6057 85.175 22.0064C84.6488 21.4071 84.086 20.7785 83.4867 20.1207L79.5838 15.8671C78.5898 14.6538 77.7566 13.616 77.0842 12.7536C76.4118 11.8911 75.871 11.1237 75.4617 10.4513C75.067 9.77891 74.782 9.16498 74.6066 8.60951C74.4458 8.03943 74.3654 7.44743 74.3654 6.8335C74.3654 5.64948 74.6066 4.67012 75.089 3.89539C75.5713 3.10605 76.2072 2.4775 76.9965 2.00974C77.7859 1.54198 78.6775 1.21309 79.6715 1.02307C80.6655 0.818421 81.6814 0.716099 82.7193 0.716099ZM116.135 1.39581V3.54457H108.241V34H103.439V3.54457H95.4803V1.39581H116.135ZM126.111 34H121.287V1.39581H126.111V34ZM158.65 34H154.966L136.899 8.67529V34H134.662V5.53985L131.746 1.39581H137.622L156.391 27.751V1.39581H158.65V34ZM22.3651 47.6485V49.517H9.20945V58.1159H21.9648V59.9844H9.20945V76H5.03395V47.6485H22.3651ZM36.7029 47.6485C38.3172 47.6485 39.709 47.7947 40.8784 48.0871C42.0605 48.3667 43.0583 48.7417 43.8718 49.212C44.698 49.6823 45.359 50.2225 45.8547 50.8326C46.3632 51.4427 46.7508 52.0719 47.0178 52.7201C47.2974 53.3684 47.4817 54.0166 47.5707 54.6649C47.6724 55.3004 47.7232 55.8915 47.7232 56.4381C47.7232 57.1372 47.6088 57.9189 47.38 58.7832C47.1639 59.6475 46.7636 60.4865 46.1789 61.2999C45.6069 62.1134 44.8188 62.8507 43.8146 63.5116C42.8105 64.1599 41.5331 64.6238 39.9823 64.9035L48.1808 76H43.0711L35.0632 65.1895H31.9745V76H27.799V47.6485H36.7029ZM31.9745 49.517V63.3019H34.3578C35.7179 63.3019 36.9444 63.1811 38.0376 62.9396C39.1434 62.6854 40.084 62.285 40.8594 61.7385C41.6474 61.1792 42.2512 60.461 42.6707 59.584C43.0901 58.6942 43.2999 57.6202 43.2999 56.3618C43.2999 54.9382 43.0456 53.7815 42.5372 52.8917C42.0288 51.9893 41.3551 51.2902 40.5162 50.7945C39.69 50.2987 38.743 49.9619 37.6753 49.7839C36.6076 49.606 35.5145 49.517 34.3959 49.517H31.9745ZM75.007 76H70.6027L69.0392 72.3202H53.5384L52.0131 76H49.7061L60.0972 51.2902L58.5719 47.6485H63.0334L75.007 76ZM54.3201 70.4517H68.2575L61.2221 53.9785L54.3201 70.4517ZM99.7168 76H96.5137L80.8031 53.9785V76H78.8584V51.252L76.3226 47.6485H81.4323L97.753 70.5661V47.6485H99.7168V76ZM119.851 47.0575C122.062 47.0575 124.109 47.4197 125.99 48.1443C127.884 48.8561 129.562 49.8475 131.024 51.1186L129.956 52.5295C129.371 52.0338 128.723 51.5698 128.011 51.1376C127.299 50.7055 126.549 50.3369 125.761 50.0318C124.973 49.714 124.153 49.4662 123.302 49.2882C122.45 49.0976 121.592 49.0022 120.728 49.0022C118.872 49.0022 117.226 49.3391 115.79 50.0127C114.353 50.6864 113.146 51.6079 112.167 52.7773C111.188 53.9467 110.445 55.3132 109.936 56.8766C109.428 58.44 109.174 60.1178 109.174 61.9101C109.174 63.6642 109.422 65.3166 109.917 66.8673C110.426 68.418 111.163 69.7781 112.129 70.9475C113.108 72.1168 114.315 73.0447 115.751 73.7311C117.188 74.4048 118.834 74.7416 120.69 74.7416C121.579 74.7416 122.482 74.6527 123.397 74.4747C124.312 74.2968 125.196 74.0362 126.047 73.693C126.899 73.3498 127.7 72.9303 128.45 72.4346C129.212 71.9389 129.886 71.3733 130.471 70.7377L131.557 72.1296C130.058 73.5532 128.316 74.6654 126.333 75.4661C124.35 76.2669 122.19 76.6673 119.851 76.6673C118.44 76.6673 117.086 76.4894 115.79 76.1335C114.493 75.7903 113.279 75.2945 112.148 74.6463C111.029 73.998 110.006 73.229 109.078 72.3393C108.163 71.4368 107.375 70.439 106.714 69.3459C106.066 68.2528 105.557 67.0834 105.189 65.8377C104.833 64.5793 104.655 63.2701 104.655 61.9101C104.655 60.55 104.833 59.2344 105.189 57.9634C105.557 56.6923 106.066 55.5102 106.714 54.417C107.375 53.3112 108.163 52.307 109.078 51.4046C110.006 50.5021 111.029 49.7331 112.148 49.0976C113.279 48.4493 114.493 47.9472 115.79 47.5913C117.086 47.2354 118.44 47.0575 119.851 47.0575ZM140.442 76H136.248V47.6485H140.442V76ZM153.388 47.0575C154.227 47.0575 154.958 47.0956 155.581 47.1719C156.216 47.2481 156.807 47.3562 157.354 47.496C157.913 47.6231 158.466 47.7756 159.013 47.9536C159.559 48.1315 160.169 48.3286 160.843 48.5446L160.767 50.5466C160.284 50.3814 159.794 50.2225 159.299 50.0699C158.803 49.9174 158.282 49.7839 157.735 49.6695C157.201 49.5552 156.629 49.4662 156.019 49.4026C155.409 49.3264 154.755 49.2882 154.056 49.2882C153.738 49.2882 153.369 49.3391 152.95 49.4408C152.53 49.5424 152.13 49.714 151.749 49.9555C151.367 50.197 151.043 50.5148 150.776 50.9089C150.509 51.3029 150.376 51.7923 150.376 52.377C150.376 52.9235 150.592 53.5654 151.024 54.3026C151.456 55.0272 152.181 55.936 153.198 57.0291L156.553 60.6517C157.29 61.4143 157.996 62.1706 158.67 62.9206C159.356 63.6578 159.953 64.3887 160.462 65.1132C160.97 65.825 161.377 66.5368 161.682 67.2486C161.987 67.9477 162.14 68.6404 162.14 69.3268C162.14 70.6615 161.892 71.7991 161.396 72.7397C160.913 73.6676 160.277 74.4239 159.489 75.0086C158.714 75.5805 157.831 76 156.839 76.2669C155.848 76.5339 154.856 76.6673 153.865 76.6673C153.001 76.6673 152.193 76.6165 151.443 76.5148C150.694 76.4258 149.975 76.286 149.289 76.0953C148.615 75.9174 147.967 75.6949 147.344 75.428C146.721 75.1484 146.105 74.8306 145.495 74.4747L145.743 72.4156C146.238 72.6443 146.747 72.8795 147.268 73.121C147.789 73.3498 148.317 73.5595 148.85 73.7502C149.397 73.9281 149.95 74.0743 150.509 74.1887C151.068 74.3031 151.628 74.3603 152.187 74.3603C154.056 74.3603 155.466 73.979 156.42 73.2163C157.373 72.441 157.85 71.3224 157.85 69.8607C157.85 69.4158 157.748 68.9646 157.545 68.507C157.354 68.0494 157.087 67.5791 156.744 67.0961C156.401 66.6004 155.994 66.0919 155.524 65.5708C155.066 65.0496 154.577 64.5031 154.056 63.9311L150.662 60.2322C149.797 59.1772 149.073 58.2748 148.488 57.5248C147.904 56.7749 147.433 56.1076 147.077 55.5229C146.734 54.9382 146.486 54.4043 146.334 53.9213C146.194 53.4256 146.124 52.9108 146.124 52.377C146.124 51.3474 146.334 50.4958 146.753 49.8221C147.173 49.1357 147.726 48.5891 148.412 48.1824C149.098 47.7756 149.874 47.4896 150.738 47.3244C151.602 47.1465 152.486 47.0575 153.388 47.0575Z" fill="black"/>
</svg>
